<?xml version="1.0" encoding="utf-8"?>
<!-- Generator: Adobe Illustrator 17.1.0, SVG Export Plug-In . SVG Version: 6.00 Build 0)  -->
<!DOCTYPE svg PUBLIC "-//W3C//DTD SVG 1.1//EN" "http://www.w3.org/Graphics/SVG/1.1/DTD/svg11.dtd">
<svg version="1.1" id="Layer_1" xmlns="http://www.w3.org/2000/svg" xmlns:xlink="http://www.w3.org/1999/xlink" x="0px" y="0px"
	 viewBox="0 0 472.6 160.9" enable-background="new 0 0 472.6 160.9" xml:space="preserve">
<g>
	<path fill="#FFD100" d="M143.8,75.7c-11,0-11,2.6-11,3.8v2.1c0,1.1,0,3.7,11,3.7c11,0,11-2.6,11-3.7v-2.1
		C154.7,78.3,154.7,75.7,143.8,75.7z"/>
	<path fill="#FFD100" d="M210.8,81.5V64.7c0-1.1,0-3.7-11-3.7c-11,0-11,2.6-11,3.7v16.8c0,1.1,0,3.7,11,3.7
		C210.8,85.2,210.8,82.6,210.8,81.5z"/>
	<path fill="#FFD100" d="M283.9,85.3c11,0,11-2.6,11-3.7v-2.1c0-1.1,0-3.8-11-3.8c-11,0-11,2.6-11,3.8v2.1
		C272.9,82.7,272.9,85.3,283.9,85.3z"/>
	<path fill="#FFD100" d="M462.6,0H10.1C4.5,0,0,4.5,0,10.1v140.8c0,5.6,4.5,10.1,10.1,10.1h452.5c5.6,0,10.1-4.5,10.1-10.1V10.1
		C472.6,4.5,468.1,0,462.6,0z M261,77.5c0-2.6,0-7.7,22.8-7.7c4.5,0,8.1,0.2,11,0.5v-5.6c0-1.1,0-3.7-11-3.7
		c-10.1,0-10.1,2.6-10.1,3.7c0,0.8-0.6,1.4-1.4,1.4h-9.1c-0.8,0-1.4-0.6-1.4-1.4v-1.9c0-2.6,0-7.7,22-7.7c22.8,0,22.8,5.1,22.8,7.7
		v20.7c0,2.6,0,7.7-22.8,7.7c-22.8,0-22.8-5.1-22.8-7.7V77.5z M70.4,119.9c0,0.5-0.4,0.8-0.8,0.8h-3.4c-0.5,0-0.8-0.4-0.8-0.8v-8.4
		c0-0.5,0.4-0.8,0.8-0.8h3.4c0.5,0,0.8,0.4,0.8,0.8V119.9z M87.3,119.8c0,0.5-0.4,0.9-0.9,0.9h-3.9c-0.5,0-0.9-0.4-0.9-0.9v-8.3
		c0-0.5,0.4-0.9,0.9-0.9h3.9c0.5,0,0.9,0.4,0.9,0.9V119.8z M104.3,119.8c0,0.5-0.4,0.9-0.9,0.9h-4.5c-0.5,0-0.9-0.4-0.9-0.9v-8.2
		c0-0.5,0.4-0.9,0.9-0.9h4.5c0.5,0,0.9,0.4,0.9,0.9V119.8z M111,83.5c0,2.6,0,7.7-22.8,7.7c-22.8,0-22.8-5.1-22.8-7.7v-3.5
		c0-0.8,0.6-1.4,1.4-1.4h9.1c0.8,0,1.4,0.6,1.4,1.4v1.8c0,1.2,0.4,3.6,11,3.6c11,0,11-2.6,11-3.7V41.8c0-0.8,0.6-1.4,1.4-1.4h9.1
		c0.8,0,1.4,0.6,1.4,1.4L111,83.5z M121.3,119.7c0,0.5-0.4,0.9-0.9,0.9h-5c-0.5,0-0.9-0.4-0.9-0.9v-8.2c0-0.5,0.4-0.9,0.9-0.9h5
		c0.5,0,0.9,0.4,0.9,0.9V119.7z M138.2,119.7c0,0.5-0.4,1-1,1h-5.6c-0.5,0-1-0.4-1-1v-8.1c0-0.5,0.4-1,1-1h5.6c0.5,0,1,0.4,1,1
		V119.7z M120.9,83.5v-6c0-2.6,0-7.7,22.8-7.7c4.5,0,8.1,0.2,11,0.5v-5.6c0-1.1,0-3.7-11-3.7c-10.2,0-10.2,2.6-10.2,3.7
		c0,0.8-0.6,1.4-1.4,1.4h-9.1c-0.8,0-1.4-0.6-1.4-1.4v-1.9c0-2.6,0-7.7,22-7.7c22.8,0,22.8,5.1,22.8,7.7v20.7c0,2.6,0,7.7-22.8,7.7
		C120.9,91.2,120.9,86.1,120.9,83.5z M155.2,119.7c0,0.6-0.5,1-1,1h-6.1c-0.6,0-1-0.5-1-1v-8c0-0.6,0.5-1,1-1h6.1c0.6,0,1,0.5,1,1
		V119.7z M172.2,119.6c0,0.6-0.5,1.1-1.1,1.1h-6.7c-0.6,0-1.1-0.5-1.1-1.1v-7.9c0-0.6,0.5-1.1,1.1-1.1h6.7c0.6,0,1.1,0.5,1.1,1.1
		V119.6z M177,83.4V41.7c0-0.8,0.6-1.4,1.4-1.4h9.1c0.8,0,1.4,0.6,1.4,1.4v13.8c2.9-0.3,6.5-0.5,11-0.5c22.8,0,22.8,5.1,22.8,7.7
		v20.7c0,2.6,0,7.7-22.8,7.7C177,91.2,177,86,177,83.4z M189.1,119.6c0,0.6-0.5,1.1-1.1,1.1h-7.2c-0.6,0-1.1-0.5-1.1-1.1v-7.9
		c0-0.6,0.5-1.1,1.1-1.1h7.2c0.6,0,1.1,0.5,1.1,1.1V119.6z M206.1,119.5c0,0.6-0.5,1.1-1.1,1.1h-7.8c-0.6,0-1.1-0.5-1.1-1.1v-7.8
		c0-0.6,0.5-1.1,1.1-1.1h7.8c0.6,0,1.1,0.5,1.1,1.1V119.5z M223.1,119.5c0,0.7-0.5,1.2-1.2,1.2h-8.3c-0.7,0-1.2-0.5-1.2-1.2v-7.7
		c0-0.7,0.5-1.2,1.2-1.2h8.3c0.7,0,1.2,0.5,1.2,1.2V119.5z M240.1,119.5c0,0.7-0.5,1.2-1.2,1.2H230c-0.7,0-1.2-0.5-1.2-1.2v-7.6
		c0-0.7,0.5-1.2,1.2-1.2h8.8c0.7,0,1.2,0.5,1.2,1.2V119.5z M244.9,89c0,0.8-0.6,1.4-1.4,1.4h-9.1c-0.8,0-1.4-0.6-1.4-1.4V62.8
		c0-2.6,0-7.7,22.8-7.7c0.8,0,1.4,0.6,1.4,1.4v3.1c0,0.8-0.6,1.4-1.4,1.4c-11,0-11,2.6-11,3.7V89z M366.4,118.5c0,1.2-1,2.2-2.2,2.2
		H247.3c-1.2,0-2.2-1-2.2-2.2v-5.6c0-1.2,1-2.2,2.2-2.2h116.9c1.2,0,2.2,1,2.2,2.2V118.5z M366.5,72.1c0,1.6-1.3,2.9-2.9,2.9H349
		c-9.9,0-17.9-8.3-17.4-18.3c0.4-9.3,8.3-16.6,17.7-16.6h14.3c1.6,0,2.9,1.3,2.9,3c0,1.6-1.4,2.9-3,2.9H349c-6.2,0-11.3,4.9-11.6,11
		c-0.4,6.7,5.1,12.3,11.8,12.3h10.7l0,0c0.4,0,0.7-0.3,0.7-0.7l0,0l0-7.3c0-0.4-0.3-0.7-0.7-0.7l0,0l-5.1,0c-1.6,0-2.9-1.3-2.9-3
		c0-1.6,1.4-2.9,3-2.9h8.6c1.6,0,2.9,1.3,2.9,2.9V72.1z M407.1,72c0,1-0.5,2.1-1.4,2.6c-0.5,0.3-1,0.4-1.5,0.4
		c-0.8,0-1.5-0.3-2.1-0.9L379,51c-0.3-0.3-0.9-0.1-0.9,0.4V72c0,1.6-1.3,3-2.9,3c-1.6,0-3-1.3-3-2.9v-29c0-1,0.5-2,1.4-2.5
		c1.2-0.7,2.7-0.5,3.6,0.4l23.2,23.2c0.3,0.3,0.9,0.1,0.9-0.4V43.1c0-1.6,1.3-3,2.8-3c1.6,0,3,1.3,3,2.9V72z"/>
	<path fill="#212721" d="M255.9,61c0.8,0,1.4-0.6,1.4-1.4v-3.1c0-0.8-0.6-1.4-1.4-1.4c-22.8,0-22.8,5.1-22.8,7.7V89
		c0,0.8,0.6,1.4,1.4,1.4h9.1c0.8,0,1.4-0.6,1.4-1.4V64.7C244.9,63.6,244.9,61,255.9,61z"/>
	<path fill="#212721" d="M166.6,83.5V62.8c0-2.6,0-7.7-22.8-7.7c-22,0-22,5.1-22,7.7v1.9c0,0.8,0.6,1.4,1.4,1.4h9.1
		c0.8,0,1.4-0.6,1.4-1.4c0-1.1,0-3.7,10.2-3.7c11,0,11,2.6,11,3.7v5.6c-2.9-0.3-6.5-0.5-11-0.5c-22.8,0-22.8,5.1-22.8,7.7v6
		c0,2.6,0,7.7,22.8,7.7C166.6,91.2,166.6,86.1,166.6,83.5z M154.7,81.5c0,1.1,0,3.7-11,3.7c-11,0-11-2.6-11-3.7v-2.1
		c0-1.1,0-3.8,11-3.8c11,0,11,2.6,11,3.8V81.5z"/>
	<path fill="#212721" d="M222.6,83.4V62.8c0-2.6,0-7.7-22.8-7.7c-4.5,0-8.1,0.2-11,0.5V41.7c0-0.8-0.6-1.4-1.4-1.4h-9.1
		c-0.8,0-1.4,0.6-1.4,1.4v41.7c0,2.6,0,7.7,22.8,7.7C222.6,91.2,222.6,86,222.6,83.4z M188.9,81.5V64.7c0-1.1,0-3.7,11-3.7
		c11,0,11,2.6,11,3.7v16.8c0,1.1,0,3.7-11,3.7C188.9,85.2,188.9,82.6,188.9,81.5z"/>
	<path fill="#212721" d="M283.9,91.2c22.8,0,22.8-5.1,22.8-7.7V62.8c0-2.6,0-7.7-22.8-7.7c-22,0-22,5.1-22,7.7v1.9
		c0,0.8,0.6,1.4,1.4,1.4h9.1c0.8,0,1.4-0.6,1.4-1.4c0-1.1,0-3.7,10.1-3.7c11,0,11,2.6,11,3.7v5.6c-2.9-0.3-6.5-0.5-11-0.5
		c-22.8,0-22.8,5.1-22.8,7.7v6C261,86.1,261,91.2,283.9,91.2z M272.9,79.4c0-1.1,0-3.8,11-3.8c11,0,11,2.6,11,3.8v2.1
		c0,1.1,0,3.7-11,3.7c-11,0-11-2.6-11-3.7V79.4z"/>
	<path fill="#212721" d="M109.5,40.4h-9.1c-0.8,0-1.4,0.6-1.4,1.4v39.8c0,1.1,0,3.7-11,3.7c-10.5,0-10.9-2.4-11-3.6v-1.8
		c0-0.8-0.6-1.4-1.4-1.4h-9.1c-0.8,0-1.4,0.6-1.4,1.4v3.5c0,2.6,0,7.7,22.8,7.7c22.8,0,22.8-5.1,22.8-7.7l0-41.7
		C111,41,110.3,40.4,109.5,40.4z"/>
	<path fill="#212721" d="M69.5,110.6h-3.4c-0.5,0-0.8,0.4-0.8,0.8v8.4c0,0.5,0.4,0.8,0.8,0.8h3.4c0.5,0,0.8-0.4,0.8-0.8v-8.4
		C70.4,111,70,110.6,69.5,110.6z"/>
	<path fill="#212721" d="M86.5,110.6h-3.9c-0.5,0-0.9,0.4-0.9,0.9v8.3c0,0.5,0.4,0.9,0.9,0.9h3.9c0.5,0,0.9-0.4,0.9-0.9v-8.3
		C87.3,111,86.9,110.6,86.5,110.6z"/>
	<path fill="#212721" d="M103.4,110.6h-4.5c-0.5,0-0.9,0.4-0.9,0.9v8.2c0,0.5,0.4,0.9,0.9,0.9h4.5c0.5,0,0.9-0.4,0.9-0.9v-8.2
		C104.3,111,103.9,110.6,103.4,110.6z"/>
	<path fill="#212721" d="M120.3,110.6h-5c-0.5,0-0.9,0.4-0.9,0.9v8.2c0,0.5,0.4,0.9,0.9,0.9h5c0.5,0,0.9-0.4,0.9-0.9v-8.2
		C121.3,111,120.8,110.6,120.3,110.6z"/>
	<path fill="#212721" d="M137.3,110.6h-5.6c-0.5,0-1,0.4-1,1v8.1c0,0.5,0.4,1,1,1h5.6c0.5,0,1-0.4,1-1v-8.1
		C138.2,111.1,137.8,110.6,137.3,110.6z"/>
	<path fill="#212721" d="M154.2,110.6h-6.1c-0.6,0-1,0.5-1,1v8c0,0.6,0.5,1,1,1h6.1c0.6,0,1-0.5,1-1v-8
		C155.2,111.1,154.7,110.6,154.2,110.6z"/>
	<path fill="#212721" d="M171.1,110.6h-6.7c-0.6,0-1.1,0.5-1.1,1.1v7.9c0,0.6,0.5,1.1,1.1,1.1h6.7c0.6,0,1.1-0.5,1.1-1.1v-7.9
		C172.2,111.1,171.7,110.6,171.1,110.6z"/>
	<path fill="#212721" d="M188,110.6h-7.2c-0.6,0-1.1,0.5-1.1,1.1v7.9c0,0.6,0.5,1.1,1.1,1.1h7.2c0.6,0,1.1-0.5,1.1-1.1v-7.9
		C189.1,111.1,188.7,110.6,188,110.6z"/>
	<path fill="#212721" d="M205,110.6h-7.8c-0.6,0-1.1,0.5-1.1,1.1v7.8c0,0.6,0.5,1.1,1.1,1.1h7.8c0.6,0,1.1-0.5,1.1-1.1v-7.8
		C206.1,111.1,205.6,110.6,205,110.6z"/>
	<path fill="#212721" d="M221.9,110.6h-8.3c-0.7,0-1.2,0.5-1.2,1.2v7.7c0,0.7,0.5,1.2,1.2,1.2h8.3c0.7,0,1.2-0.5,1.2-1.2v-7.7
		C223.1,111.2,222.6,110.6,221.9,110.6z"/>
	<path fill="#212721" d="M238.8,110.6H230c-0.7,0-1.2,0.5-1.2,1.2v7.6c0,0.7,0.5,1.2,1.2,1.2h8.8c0.7,0,1.2-0.5,1.2-1.2v-7.6
		C240.1,111.2,239.5,110.6,238.8,110.6z"/>
	<path fill="#212721" d="M364.2,110.6H247.3c-1.2,0-2.2,1-2.2,2.2v5.6c0,1.2,1,2.2,2.2,2.2h116.9c1.2,0,2.2-1,2.2-2.2v-5.6
		C366.4,111.6,365.4,110.6,364.2,110.6z"/>
	<path fill="#212721" d="M404.2,40.1c-1.6,0-2.8,1.4-2.8,3v20.6c0,0.5-0.6,0.7-0.9,0.4L377.2,41c-0.9-0.9-2.4-1.1-3.6-0.4
		c-0.9,0.5-1.4,1.5-1.4,2.5v29c0,1.6,1.3,2.9,3,2.9c1.6,0,2.9-1.4,2.9-3V51.4c0-0.5,0.6-0.7,0.9-0.4l23.2,23.2
		c0.6,0.6,1.3,0.9,2.1,0.9c0.5,0,1-0.1,1.5-0.4c0.9-0.5,1.4-1.5,1.4-2.6V43C407.1,41.4,405.8,40.1,404.2,40.1z"/>
	<path fill="#212721" d="M363.5,54.7h-8.6c-1.6,0-3,1.3-3,2.9c0,1.6,1.3,3,2.9,3l5.1,0l0,0c0.4,0,0.7,0.3,0.7,0.7l0,7.3l0,0
		c0,0.4-0.3,0.7-0.7,0.7l0,0h-10.7c-6.8,0-12.2-5.5-11.8-12.3c0.3-6.1,5.4-11,11.6-11h14.4c1.6,0,3-1.3,3-2.9c0-1.6-1.3-3-2.9-3
		h-14.3c-9.3,0-17.2,7.3-17.7,16.6c-0.5,10,7.5,18.3,17.4,18.3h14.5c1.6,0,2.9-1.3,2.9-2.9V57.6C366.5,56,365.2,54.7,363.5,54.7z"/>
</g>
<g>
</g>
<g>
</g>
<g>
</g>
<g>
</g>
<g>
</g>
<g>
</g>
</svg>
