<svg width="24" height="24" viewBox="0 0 24 24" fill="none" xmlns="http://www.w3.org/2000/svg">
<path fill-rule="evenodd" clip-rule="evenodd" d="M21.3189 21.3188L19.9711 22.6666L18.5566 21.2522C18.1892 21.7075 17.6271 22 17 22L7.00003 21.99C5.90003 21.99 5.00003 21.1 5.00003 20V7.6956L1.33337 4.02893L2.68121 2.6811L21.3189 21.3188ZM7.00003 15C7.00003 13.5426 7.6246 12.2302 8.62049 11.3161L10.0352 12.7308C9.40067 13.2803 9.00003 14.0923 9.00003 15C9.00003 16.66 10.34 18 12 18C12.9077 18 13.7197 17.5994 14.2693 16.9648L15.684 18.3795C14.7698 19.3754 13.4574 20 12 20C9.24003 20 7.00003 17.76 7.00003 15Z" fill="white"/>
<path fill-rule="evenodd" clip-rule="evenodd" d="M5.44348 2.74776L12.752 10.0562C14.9104 10.3822 16.6178 12.0897 16.9438 14.2481L19 16.3043V4C19 2.9 18.1 2 17 2H7.00003C6.37296 2 5.81088 2.29248 5.44348 2.74776ZM12 4C13.1 4 14 4.9 14 6C14 7.1 13.1 8 12 8C10.89 8 10 7.1 10 6C10 4.9 10.89 4 12 4Z" fill="white"/>
</svg>
