<svg xmlns="http://www.w3.org/2000/svg" viewBox="0 0 218.3 217.1">
  <path d="M83.9,92.1l51.8,23.6,52.2-45.8A54.71,54.71,0,0,0,189,58.4a58.35,58.35,0,0,0-106.5-33L73.8,70.5Z"/>
  <path d="M30.3,146.9a56.62,56.62,0,0,0-1.1,11.7,58.58,58.58,0,0,0,107,32.9l8.6-44.9-11.5-22-52-23.7Z"/>
  <path d="M30,57.3l35.5,8.4,7.8-40.3A28,28,0,0,0,30,57.3"/>
  <path d="M26.9,65.8a39.1,39.1,0,0,0-1.7,73.7L75,94.5,65.9,75Z"/>
  <path d="M145.2,191.5a28,28,0,0,0,43.2-31.9L153,151.3Z"/>
  <path d="M152.4,142l39,9.1a39.1,39.1,0,0,0,1.7-73.7l-51,44.7Z"/>
</svg>
