<svg xmlns="http://www.w3.org/2000/svg" viewBox="0 0 236.6 235.6">
  <path fill="none" d="M75,84.4,36,75.1a39.18,39.18,0,0,0-1.7,73.8l49.8-45Z"/>
  <path fill="none" d="M144.8,125.1,197,79.3a63.11,63.11,0,0,0,1.1-11.5,58.35,58.35,0,0,0-106.5-33L82.9,79.9,93,101.5Z"/>
  <path fill="none" d="M74.6,75l7.8-40.3a28.05,28.05,0,0,0-45,22.2,28.69,28.69,0,0,0,1.7,9.7Z"/>
  <path fill="none" d="M90.2,110.3l-50.9,46A64.45,64.45,0,0,0,38.2,168a58.58,58.58,0,0,0,107,32.9l8.5-44.9-11.5-22Z"/>
  <path fill="none" d="M202.1,86.9l-51,44.7,10.4,19.8,39,9.1a39.06,39.06,0,0,0,1.6-73.6Z"/>
  <path fill="none" d="M162,160.6l-7.7,40.2a27.46,27.46,0,0,0,16.9,5.8,27.87,27.87,0,0,0,27.9-28,28.69,28.69,0,0,0-1.7-9.7Z"/>
  <path d="M236.6,123.5a46.54,46.54,0,0,0-30.8-43.9A67,67,0,0,0,140.2,0,66.72,66.72,0,0,0,86,27.7,35.5,35.5,0,0,0,28.8,55.8,36.77,36.77,0,0,0,31,68.2a46.75,46.75,0,0,0-.1,88,66.66,66.66,0,0,0,119.6,51.6,35,35,0,0,0,21.7,7.6,35.51,35.51,0,0,0,35.5-35.5,36.77,36.77,0,0,0-2.2-12.4A47.08,47.08,0,0,0,236.6,123.5ZM91.6,34.8a58.35,58.35,0,0,1,106.5,33A63.11,63.11,0,0,1,197,79.3l-52.2,45.8L93,101.5,82.9,79.9ZM65.4,29a28.06,28.06,0,0,1,17,5.7L74.6,75,39.1,66.6a28.69,28.69,0,0,1-1.7-9.7A28,28,0,0,1,65.4,29ZM9.1,112.3A39.57,39.57,0,0,1,36,75.1l39,9.3,9.1,19.5-49.8,45A39.24,39.24,0,0,1,9.1,112.3Zm136.1,88.6A58.58,58.58,0,0,1,38.2,168a64.45,64.45,0,0,1,1.1-11.7l50.9-46,52,23.7,11.5,22Zm26,5.7a27.46,27.46,0,0,1-16.9-5.8l7.7-40.2,35.4,8.3a28.69,28.69,0,0,1,1.7,9.7A27.87,27.87,0,0,1,171.2,206.6Zm29.3-46.1-39-9.1-10.4-19.8,51-44.7a39.06,39.06,0,0,1-1.6,73.6Z"/>
</svg>
