<svg xmlns="http://www.w3.org/2000/svg" viewBox="0 0 472.6 160.9">
	<path fill="#FFD100" d="M143.8 75.7c-11 0-11 2.6-11 3.8v2.1c0 1.1 0 3.7 11 3.7s11-2.6 11-3.7v-2.1c-.1-1.2-.1-3.8-11-3.8zM210.8 81.5V64.7c0-1.1 0-3.7-11-3.7s-11 2.6-11 3.7v16.8c0 1.1 0 3.7 11 3.7s11-2.6 11-3.7zM283.9 85.3c11 0 11-2.6 11-3.7v-2.1c0-1.1 0-3.8-11-3.8s-11 2.6-11 3.8v2.1c0 1.1 0 3.7 11 3.7z"/>
	<path fill="#FFD100" d="M462.6 0H10.1C4.5 0 0 4.5 0 10.1v140.8c0 5.6 4.5 10.1 10.1 10.1h452.5c5.6 0 10.1-4.5 10.1-10.1V10.1C472.6 4.5 468.1 0 462.6 0zM261 77.5c0-2.6 0-7.7 22.8-7.7 4.5 0 8.1.2 11 .5v-5.6c0-1.1 0-3.7-11-3.7-10.1 0-10.1 2.6-10.1 3.7 0 .8-.6 1.4-1.4 1.4h-9.1c-.8 0-1.4-.6-1.4-1.4v-1.9c0-2.6 0-7.7 22-7.7 22.8 0 22.8 5.1 22.8 7.7v20.7c0 2.6 0 7.7-22.8 7.7S261 86.1 261 83.5v-6zM70.4 119.9c0 .5-.4.8-.8.8h-3.4c-.5 0-.8-.4-.8-.8v-8.4c0-.5.4-.8.8-.8h3.4c.5 0 .8.4.8.8v8.4zm16.9-.1c0 .5-.4.9-.9.9h-3.9c-.5 0-.9-.4-.9-.9v-8.3c0-.5.4-.9.9-.9h3.9c.5 0 .9.4.9.9v8.3zm17 0c0 .5-.4.9-.9.9h-4.5c-.5 0-.9-.4-.9-.9v-8.2c0-.5.4-.9.9-.9h4.5c.5 0 .9.4.9.9v8.2zm6.7-36.3c0 2.6 0 7.7-22.8 7.7s-22.8-5.1-22.8-7.7V80c0-.8.6-1.4 1.4-1.4h9.1c.8 0 1.4.6 1.4 1.4v1.8c0 1.2.4 3.6 11 3.6 11 0 11-2.6 11-3.7V41.8c0-.8.6-1.4 1.4-1.4h9.1c.8 0 1.4.6 1.4 1.4l-.2 41.7zm10.3 36.2c0 .5-.4.9-.9.9h-5c-.5 0-.9-.4-.9-.9v-8.2c0-.5.4-.9.9-.9h5c.5 0 .9.4.9.9v8.2zm16.9 0c0 .5-.4 1-1 1h-5.6c-.5 0-1-.4-1-1v-8.1c0-.5.4-1 1-1h5.6c.5 0 1 .4 1 1v8.1zm-17.3-36.2v-6c0-2.6 0-7.7 22.8-7.7 4.5 0 8.1.2 11 .5v-5.6c0-1.1 0-3.7-11-3.7-10.2 0-10.2 2.6-10.2 3.7 0 .8-.6 1.4-1.4 1.4H123c-.8 0-1.4-.6-1.4-1.4v-1.9c0-2.6 0-7.7 22-7.7 22.8 0 22.8 5.1 22.8 7.7v20.7c0 2.6 0 7.7-22.8 7.7-22.7 0-22.7-5.1-22.7-7.7zm34.3 36.2c0 .6-.5 1-1 1h-6.1c-.6 0-1-.5-1-1v-8c0-.6.5-1 1-1h6.1c.6 0 1 .5 1 1v8zm17-.1c0 .6-.5 1.1-1.1 1.1h-6.7c-.6 0-1.1-.5-1.1-1.1v-7.9c0-.6.5-1.1 1.1-1.1h6.7c.6 0 1.1.5 1.1 1.1v7.9zm4.8-36.2V41.7c0-.8.6-1.4 1.4-1.4h9.1c.8 0 1.4.6 1.4 1.4v13.8c2.9-.3 6.5-.5 11-.5 22.8 0 22.8 5.1 22.8 7.7v20.7c0 2.6 0 7.7-22.8 7.7-22.9.1-22.9-5.1-22.9-7.7zm12.1 36.2c0 .6-.5 1.1-1.1 1.1h-7.2c-.6 0-1.1-.5-1.1-1.1v-7.9c0-.6.5-1.1 1.1-1.1h7.2c.6 0 1.1.5 1.1 1.1v7.9zm17-.1c0 .6-.5 1.1-1.1 1.1h-7.8c-.6 0-1.1-.5-1.1-1.1v-7.8c0-.6.5-1.1 1.1-1.1h7.8c.6 0 1.1.5 1.1 1.1v7.8zm17 0c0 .7-.5 1.2-1.2 1.2h-8.3c-.7 0-1.2-.5-1.2-1.2v-7.7c0-.7.5-1.2 1.2-1.2h8.3c.7 0 1.2.5 1.2 1.2v7.7zm17 0c0 .7-.5 1.2-1.2 1.2H230c-.7 0-1.2-.5-1.2-1.2v-7.6c0-.7.5-1.2 1.2-1.2h8.8c.7 0 1.2.5 1.2 1.2v7.6zm4.8-30.5c0 .8-.6 1.4-1.4 1.4h-9.1c-.8 0-1.4-.6-1.4-1.4V62.8c0-2.6 0-7.7 22.8-7.7.8 0 1.4.6 1.4 1.4v3.1c0 .8-.6 1.4-1.4 1.4-11 0-11 2.6-11 3.7V89zm121.5 29.5c0 1.2-1 2.2-2.2 2.2H247.3c-1.2 0-2.2-1-2.2-2.2v-5.6c0-1.2 1-2.2 2.2-2.2h116.9c1.2 0 2.2 1 2.2 2.2v5.6zm.1-46.4c0 1.6-1.3 2.9-2.9 2.9H349c-9.9 0-17.9-8.3-17.4-18.3.4-9.3 8.3-16.6 17.7-16.6h14.3c1.6 0 2.9 1.3 2.9 3 0 1.6-1.4 2.9-3 2.9H349c-6.2 0-11.3 4.9-11.6 11-.4 6.7 5.1 12.3 11.8 12.3h10.7c.4 0 .7-.3.7-.7v-7.3c0-.4-.3-.7-.7-.7h-5.1c-1.6 0-2.9-1.3-2.9-3 0-1.6 1.4-2.9 3-2.9h8.6c1.6 0 2.9 1.3 2.9 2.9v14.5zm40.6-.1c0 1-.5 2.1-1.4 2.6-.5.3-1 .4-1.5.4-.8 0-1.5-.3-2.1-.9L379 51c-.3-.3-.9-.1-.9.4V72c0 1.6-1.3 3-2.9 3-1.6 0-3-1.3-3-2.9v-29c0-1 .5-2 1.4-2.5 1.2-.7 2.7-.5 3.6.4l23.2 23.2c.3.3.9.1.9-.4V43.1c0-1.6 1.3-3 2.8-3 1.6 0 3 1.3 3 2.9v29z"/>
	<path fill="#212721" d="M255.9 61c.8 0 1.4-.6 1.4-1.4v-3.1c0-.8-.6-1.4-1.4-1.4-22.8 0-22.8 5.1-22.8 7.7V89c0 .8.6 1.4 1.4 1.4h9.1c.8 0 1.4-.6 1.4-1.4V64.7c-.1-1.1-.1-3.7 10.9-3.7zM166.6 83.5V62.8c0-2.6 0-7.7-22.8-7.7-22 0-22 5.1-22 7.7v1.9c0 .8.6 1.4 1.4 1.4h9.1c.8 0 1.4-.6 1.4-1.4 0-1.1 0-3.7 10.2-3.7 11 0 11 2.6 11 3.7v5.6c-2.9-.3-6.5-.5-11-.5-22.8 0-22.8 5.1-22.8 7.7v6c0 2.6 0 7.7 22.8 7.7 22.7 0 22.7-5.1 22.7-7.7zm-11.9-2c0 1.1 0 3.7-11 3.7s-11-2.6-11-3.7v-2.1c0-1.1 0-3.8 11-3.8s11 2.6 11 3.8v2.1zM222.6 83.4V62.8c0-2.6 0-7.7-22.8-7.7-4.5 0-8.1.2-11 .5V41.7c0-.8-.6-1.4-1.4-1.4h-9.1c-.8 0-1.4.6-1.4 1.4v41.7c0 2.6 0 7.7 22.8 7.7 22.9.1 22.9-5.1 22.9-7.7zm-33.7-1.9V64.7c0-1.1 0-3.7 11-3.7s11 2.6 11 3.7v16.8c0 1.1 0 3.7-11 3.7s-11-2.6-11-3.7zM283.9 91.2c22.8 0 22.8-5.1 22.8-7.7V62.8c0-2.6 0-7.7-22.8-7.7-22 0-22 5.1-22 7.7v1.9c0 .8.6 1.4 1.4 1.4h9.1c.8 0 1.4-.6 1.4-1.4 0-1.1 0-3.7 10.1-3.7 11 0 11 2.6 11 3.7v5.6c-2.9-.3-6.5-.5-11-.5-22.8 0-22.8 5.1-22.8 7.7v6c-.1 2.6-.1 7.7 22.8 7.7zm-11-11.8c0-1.1 0-3.8 11-3.8s11 2.6 11 3.8v2.1c0 1.1 0 3.7-11 3.7s-11-2.6-11-3.7v-2.1zM109.5 40.4h-9.1c-.8 0-1.4.6-1.4 1.4v39.8c0 1.1 0 3.7-11 3.7-10.5 0-10.9-2.4-11-3.6v-1.8c0-.8-.6-1.4-1.4-1.4h-9.1c-.8 0-1.4.6-1.4 1.4v3.5c0 2.6 0 7.7 22.8 7.7s22.8-5.1 22.8-7.7V41.7c.3-.7-.4-1.3-1.2-1.3zM69.5 110.6h-3.4c-.5 0-.8.4-.8.8v8.4c0 .5.4.8.8.8h3.4c.5 0 .8-.4.8-.8v-8.4c.1-.4-.3-.8-.8-.8zM86.5 110.6h-3.9c-.5 0-.9.4-.9.9v8.3c0 .5.4.9.9.9h3.9c.5 0 .9-.4.9-.9v-8.3c-.1-.5-.5-.9-.9-.9zM103.4 110.6h-4.5c-.5 0-.9.4-.9.9v8.2c0 .5.4.9.9.9h4.5c.5 0 .9-.4.9-.9v-8.2c0-.5-.4-.9-.9-.9zM120.3 110.6h-5c-.5 0-.9.4-.9.9v8.2c0 .5.4.9.9.9h5c.5 0 .9-.4.9-.9v-8.2c.1-.5-.4-.9-.9-.9zM137.3 110.6h-5.6c-.5 0-1 .4-1 1v8.1c0 .5.4 1 1 1h5.6c.5 0 1-.4 1-1v-8.1c-.1-.5-.5-1-1-1zM154.2 110.6h-6.1c-.6 0-1 .5-1 1v8c0 .6.5 1 1 1h6.1c.6 0 1-.5 1-1v-8c0-.5-.5-1-1-1zM171.1 110.6h-6.7c-.6 0-1.1.5-1.1 1.1v7.9c0 .6.5 1.1 1.1 1.1h6.7c.6 0 1.1-.5 1.1-1.1v-7.9c0-.6-.5-1.1-1.1-1.1zM188 110.6h-7.2c-.6 0-1.1.5-1.1 1.1v7.9c0 .6.5 1.1 1.1 1.1h7.2c.6 0 1.1-.5 1.1-1.1v-7.9c0-.6-.4-1.1-1.1-1.1zM205 110.6h-7.8c-.6 0-1.1.5-1.1 1.1v7.8c0 .6.5 1.1 1.1 1.1h7.8c.6 0 1.1-.5 1.1-1.1v-7.8c0-.6-.5-1.1-1.1-1.1zM221.9 110.6h-8.3c-.7 0-1.2.5-1.2 1.2v7.7c0 .7.5 1.2 1.2 1.2h8.3c.7 0 1.2-.5 1.2-1.2v-7.7c0-.6-.5-1.2-1.2-1.2zM238.8 110.6H230c-.7 0-1.2.5-1.2 1.2v7.6c0 .7.5 1.2 1.2 1.2h8.8c.7 0 1.2-.5 1.2-1.2v-7.6c.1-.6-.5-1.2-1.2-1.2zM364.2 110.6H247.3c-1.2 0-2.2 1-2.2 2.2v5.6c0 1.2 1 2.2 2.2 2.2h116.9c1.2 0 2.2-1 2.2-2.2v-5.6c0-1.2-1-2.2-2.2-2.2zM404.2 40.1c-1.6 0-2.8 1.4-2.8 3v20.6c0 .5-.6.7-.9.4L377.2 41c-.9-.9-2.4-1.1-3.6-.4-.9.5-1.4 1.5-1.4 2.5v29c0 1.6 1.3 2.9 3 2.9 1.6 0 2.9-1.4 2.9-3V51.4c0-.5.6-.7.9-.4l23.2 23.2c.6.6 1.3.9 2.1.9.5 0 1-.1 1.5-.4.9-.5 1.4-1.5 1.4-2.6V43c-.1-1.6-1.4-2.9-3-2.9zM363.5 54.7h-8.6c-1.6 0-3 1.3-3 2.9 0 1.6 1.3 3 2.9 3h5.1c.4 0 .7.3.7.7v7.3c0 .4-.3.7-.7.7h-10.7c-6.8 0-12.2-5.5-11.8-12.3.3-6.1 5.4-11 11.6-11h14.4c1.6 0 3-1.3 3-2.9 0-1.6-1.3-3-2.9-3h-14.3c-9.3 0-17.2 7.3-17.7 16.6-.5 10 7.5 18.3 17.4 18.3h14.5c1.6 0 2.9-1.3 2.9-2.9V57.6c.2-1.6-1.1-2.9-2.8-2.9z"/>
</svg>