<svg width="24" height="24" viewBox="0 0 24 24" fill="none" xmlns="http://www.w3.org/2000/svg">
<path d="M18.293 14.9307C18.7435 14.044 19 13.0503 19 12H17.3C17.3 12.5912 17.2014 13.1474 17.0218 13.6595L18.293 14.9307Z" fill="white"/>
<path d="M14.9906 11.6283L15 6.00004C15 4.34004 13.66 3.00004 12 3.00004C10.456 3.00004 9.18889 4.15925 9.01929 5.65697L14.9906 11.6283Z" fill="white"/>
<path d="M3.34785 2.68115L2 4.02897L8.99999 11.029V12C8.99999 13.66 10.34 15 12 15C12.2955 15 12.5805 14.9576 12.8494 14.8784L14.479 16.508C13.7236 16.89 12.8728 17.1 12 17.1C9.23999 17.1 6.69999 15 6.69999 12H4.99999C4.99999 15.42 7.71999 18.23 11 18.72V22H13V18.72C13.9673 18.5785 14.8859 18.2334 15.7004 17.7294L20.6377 22.6667L21.9855 21.3189L3.34785 2.68115Z" fill="white"/>
</svg>
