<svg width="24" height="24" viewBox="0 0 24 24" fill="none" xmlns="http://www.w3.org/2000/svg">
<path d="M17 20C16.71 20 16.44 19.94 16.24 19.85C15.53 19.48 15.03 18.97 14.53 17.47C14.02 15.91 13.06 15.18 12.14 14.47C11.35 13.86 10.53 13.23 9.82 11.94C9.29 10.98 9 9.93003 9 9.00003C9 6.20003 11.2 4.00003 14 4.00003C16.8 4.00003 19 6.20003 19 9.00003H21C21 5.07003 17.93 2.00003 14 2.00003C10.07 2.00003 7 5.07003 7 9.00003C7 10.26 7.38 11.65 8.07 12.9C8.98 14.55 10.05 15.38 10.92 16.05C11.73 16.67 12.31 17.12 12.63 18.1C13.23 19.92 14 20.94 15.36 21.65C15.87 21.88 16.43 22 17 22C19.21 22 21 20.21 21 18H19C19 19.1 18.1 20 17 20ZM7.64 2.64003L6.22 1.22003C4.23 3.21003 3 5.96003 3 9.00003C3 12.04 4.23 14.79 6.22 16.78L7.63 15.37C6.01 13.74 5 11.49 5 9.00003C5 6.51003 6.01 4.26003 7.64 2.64003ZM11.5 9.00003C11.5 10.38 12.62 11.5 14 11.5C15.38 11.5 16.5 10.38 16.5 9.00003C16.5 7.62003 15.38 6.50003 14 6.50003C12.62 6.50003 11.5 7.62003 11.5 9.00003Z" fill="white"/>
</svg>
